<svg id="Layer_1" data-name="Layer 1" xmlns="http://www.w3.org/2000/svg" viewBox="0 0 24.57 31.89"><title>app-icon-1</title><path d="M22.57,0H4.75a2,2,0,0,0-2,2V9.13H1.5A1.5,1.5,0,0,0,0,10.63V30.39a1.5,1.5,0,0,0,1.5,1.5H22.57a2,2,0,0,0,2-2V2A2,2,0,0,0,22.57,0ZM11.94,1.38h3.44A.65.65,0,0,1,16,2a.66.66,0,0,1-.65.66H11.94A.68.68,0,0,1,11.28,2,.66.66,0,0,1,11.94,1.38ZM4.43,10.27A.63.63,0,0,1,5,9.61h2.2a.64.64,0,0,1,.62.63.65.65,0,0,1-.6.68H5.05a.63.63,0,0,1-.62-.6Zm-3,18.31V11.42h9.43V28.58Zm3.5,1.59a1.17,1.17,0,0,1,1.22-1.12h0a1.12,1.12,0,0,1,0,2.24h0a1.17,1.17,0,0,1-1.23-1.11h0Zm8.74.77a1.36,1.36,0,0,1-1.39-1.13v-.32a1.36,1.36,0,0,1,1.39-1.13,1.29,1.29,0,1,1,0,2.58Zm9.23-3.46H12.27V10.63a1.5,1.5,0,0,0-1.5-1.5H4.43V3.93H22.89Z"/></svg>